Coordinates
version=1
nRows=16
nColumns=42
inDegrees=yes

Units are S.I. units (second, meters, Newtons, ...)
Angles are in degrees.

endheader
time	pelvis_tilt	pelvis_list	pelvis_rotation	pelvis_tx	pelvis_ty	pelvis_tz	hip_flexion_r	hip_adduction_r	hip_rotation_r	knee_angle_r	knee_vv_r	knee_rot_r	ankle_angle_r	subtalar_angle_r	mtp_angle_r	hip_flexion_l	hip_adduction_l	hip_rotation_l	knee_angle_l	knee_vv_l	knee_rot_l	ankle_angle_l	subtalar_angle_l	mtp_angle_l	lumbar_extension	lumbar_bending	lumbar_rotation	arm_flex_r	arm_add_r	arm_rot_r	elbow_flex_r	pro_sup_r	wrist_flex_r	wrist_dev_r	arm_flex_l	arm_add_l	arm_rot_l	elbow_flex_l	pro_sup_l	wrist_flex_l	wrist_dev_l
      1.83000000	     -4.29037051	     -5.08792536	      3.93439891	      0.02085343	      0.97271620	      2.64035934	     -9.84951927	      3.82966318	      0.99183962	    -17.11311997	      0.53430622	      6.82474651	    -13.83942364	      0.00000000	      0.00000000	     29.96324246	     -5.20384785	     16.14162005	    -60.30154412	     -8.40246880	     10.03762547	     -4.23688700	      0.00000000	      0.00000000	    -10.52102497	      6.81225712	      8.70636003	    -13.37747135	    -33.16309160	     -8.34305379	    130.72989375	     86.51662706	      0.00000000	      0.00000000	    -33.77885291	    -22.44646566	     -5.85977255	    133.03067377	     85.94366927	      0.00000000	      0.00000000
      1.84000000	     -4.77296755	     -4.54638606	      3.62623470	      0.02264486	      0.97846619	      2.63961867	    -11.18114521	      2.83040447	      1.32468332	    -15.35120714	      0.73195210	      6.64105313	    -19.13997380	      0.00000000	      0.00000000	     30.12059920	     -4.88010963	     16.91125946	    -53.76764741	     -9.37973277	     11.94612697	     -4.42221179	      0.00000000	      0.00000000	     -9.84232256	      6.11757256	      9.10273449	    -13.73023820	    -33.10061582	     -8.13130736	    131.36821360	     86.51662706	      0.00000000	      0.00000000	    -35.03649619	    -22.02775685	     -6.79618780	    133.35923676	     85.94366927	      0.00000000	      0.00000000
      1.85000000	     -5.24286670	     -4.09454157	      3.38531169	      0.02443862	      0.98334187	      2.63909691	    -12.28401366	      2.05647388	      1.44612729	    -14.06161836	      0.63813425	      6.49910898	    -23.88245368	      0.00000000	      0.00000000	     30.05054188	     -4.69662452	     17.40489478	    -46.98257358	     -9.73857290	     13.64836575	     -4.76436747	      0.00000000	      0.00000000	     -9.18275410	      5.48567261	      9.39028014	    -14.15622039	    -33.00064291	     -7.84813055	    131.96942488	     86.51662706	      0.00000000	      0.00000000	    -36.21079666	    -21.64680006	     -7.72274693	    133.81193599	     85.94366927	      0.00000000	      0.00000000
      1.86000000	     -5.63475839	     -3.79069673	      3.23048763	      0.02609736	      0.98723947	      2.63870723	    -13.17110625	      1.58375659	      1.38704720	    -13.38672091	      0.27053263	      6.33466259	    -27.86004422	      0.00000000	      0.00000000	     29.73128512	     -4.68060246	     17.48438713	    -40.14047797	     -9.40380376	     14.84483508	     -5.24257994	      0.00000000	      0.00000000	     -8.61459648	      4.99144575	      9.55613243	    -14.64447684	    -32.88450258	     -7.52793628	    132.52779110	     86.51662706	      0.00000000	      0.00000000	    -37.27411161	    -21.30991975	     -8.62494844	    134.37068012	     85.94366927	      0.00000000	      0.00000000
      1.87000000	     -5.89613568	     -3.66828077	      3.14893500	      0.02762584	      0.99004154	      2.63847557	    -13.85986356	      1.43144440	      1.26920039	    -13.45676239	     -0.31289704	      6.01758489	    -30.93352551	      0.00000000	      0.00000000	     29.17604505	     -4.83669151	     17.00999722	    -33.50135061	     -8.44102334	     15.29592328	     -5.84830365	      0.00000000	      0.00000000	     -8.20592480	      4.67280645	      9.61636805	    -15.17462935	    -32.77239174	     -7.20549479	    133.03025954	     86.51662706	      0.00000000	      0.00000000	    -38.18849947	    -21.01792627	     -9.47855800	    135.00509803	     85.94366927	      0.00000000	      0.00000000
      1.88000000	     -5.99548166	     -3.71954334	      3.10952059	      0.02904850	      0.99174494	      2.63840653	    -14.37218002	      1.56041990	      1.28272057	    -14.36759689	     -1.01542291	      5.39505067	    -33.04366103	      0.00000000	      0.00000000	     28.43782016	     -5.13751232	     15.88193683	    -27.37937550	     -7.04172400	     14.88819268	     -6.57788099	      0.00000000	      0.00000000	     -8.00555530	      4.52246476	      9.60103683	    -15.72217853	    -32.67349979	     -6.90891946	    133.45702216	     86.51662706	      0.00000000	      0.00000000	    -38.91110282	    -20.76958132	    -10.25481252	    135.67865303	     85.94366927	      0.00000000	      0.00000000
      1.89000000	     -5.92406960	     -3.89527304	      3.08198324	      0.03031892	      0.99244469	      2.63843559	    -14.72337488	      1.89107231	      1.64021722	    -16.15711095	     -1.70594648	      4.35184706	    -34.21209248	      0.00000000	      0.00000000	     27.59917349	     -5.52527394	     14.08772517	    -22.10137327	     -5.46927635	     13.66825310	     -7.41762239	      0.00000000	      0.00000000	     -8.03610101	      4.49452111	      9.53569744	    -16.26431834	    -32.58130986	     -6.65477619	    133.78339458	     86.51662706	      0.00000000	      0.00000000	    -39.40201825	    -20.56633895	    -10.92782286	    136.35398877	     85.94366927	      0.00000000	      0.00000000
      1.90000000	     -5.69090219	     -4.12368610	      3.05365913	      0.03133901	      0.99223668	      2.63848222	    -14.91283641	      2.32891156	      2.51592286	    -18.79352927	     -2.23542289	      2.86406740	    -34.52796670	      0.00000000	      0.00000000	     26.75488192	     -5.92566752	     11.73660931	    -17.94331605	     -3.98622994	     11.83344479	     -8.32655516	      0.00000000	      0.00000000	     -8.29336999	      4.52116765	      9.42953458	    -16.78450395	    -32.47553506	     -6.44642989	    133.98343208	     86.51662706	      0.00000000	      0.00000000	    -39.63287059	    -20.41658021	    -11.48153733	    136.99700488	     85.94366927	      0.00000000	      0.00000000
      1.91000000	     -5.31891515	     -4.33593647	      3.03182763	      0.03205578	      0.99116808	      2.63849189	    -14.92821376	      2.79152465	      3.98374720	    -22.18442743	     -2.46406723	      1.02271812	    -34.11972401	      0.00000000	      0.00000000	     25.99018461	     -6.26887219	      9.06487175	    -15.07175026	     -2.78986739	      9.68440137	     -9.22233922	      0.00000000	      0.00000000	     -8.74953111	      4.53224463	      9.27502684	    -17.27499706	    -32.32925605	     -6.27568067	    134.03450747	     86.51662706	      0.00000000	      0.00000000	    -39.59389391	    -20.33738080	    -11.91354494	    137.57926847	     85.94366927	      0.00000000	      0.00000000
      1.92000000	     -4.84596328	     -4.48261482	      3.03138012	      0.03248268	      0.98918126	      2.63846080	    -14.75794690	      3.22804217	      5.97401515	    -26.20099766	     -2.29230440	     -0.98423246	    -33.11897711	      0.00000000	      0.00000000	     25.35481957	     -6.50796071	      6.40267169	    -13.51537447	     -1.97730630	      7.55560268	     -9.97334416	      0.00000000	      0.00000000	     -9.35890578	      4.47050658	      9.05646851	    -17.73697731	    -32.11785402	     -6.12698820	    133.92125330	     86.51662706	      0.00000000	      0.00000000	    -39.29698755	    -20.35281262	    -12.23414832	    138.07845077	     85.94366927	      0.00000000	      0.00000000
      1.93000000	     -4.31618859	     -4.53389237	      3.06144021	      0.03262694	      0.98616175	      2.63843697	    -14.39607960	      3.61590912	      8.27010209	    -30.70284320	     -1.69044371	     -2.92465709	    -31.63235252	      0.00000000	      0.00000000	     24.84607221	     -6.62848852	      4.10607200	    -13.17419625	     -1.54644714	      5.74270620	    -10.39977041	      0.00000000	      0.00000000	    -10.06633293	      4.29788971	      8.75954104	    -18.17818875	    -31.82620559	     -5.98310256	    133.63726380	     86.51662706	      0.00000000	      0.00000000	    -38.77265071	    -20.48926104	    -12.46082011	    138.47690175	     85.94366927	      0.00000000	      0.00000000
      1.94000000	     -3.75833949	     -4.47062281	      3.12210644	      0.03251603	      0.98210337	      2.63847177	    -13.83743990	      3.93312477	     10.55475846	    -35.55550322	     -0.71860675	     -4.58812345	    -29.73823345	      0.00000000	      0.00000000	     24.41510937	     -6.64269818	      2.47209449	    -13.85935580	     -1.42521478	      4.44379029	    -10.28976414	      0.00000000	      0.00000000	    -10.81807610	      3.99235757	      8.37512839	    -18.60865253	    -31.45226832	     -5.83071795	    133.18384206	     86.51662706	      0.00000000	      0.00000000	    -38.06023729	    -20.76937072	    -12.60965973	    138.75898784	     85.94366927	      0.00000000	      0.00000000
      1.95000000	     -3.17753974	     -4.28057857	      3.20809891	      0.03231844	      0.97709765	      2.63856354	    -13.07861649	      4.13080021	     12.49368576	    -40.64383816	      0.47847350	     -5.83900281	    -27.51142126	      0.00000000	      0.00000000	     23.99042373	     -6.56068944	      1.66255802	    -15.35167895	     -1.51461740	      3.72906271	     -9.43629610	      0.00000000	      0.00000000	    -11.57353765	      3.54029688	      7.89711075	    -19.03563402	    -31.00700648	     -5.66482162	    132.56647157	     86.51662706	      0.00000000	      0.00000000	    -37.19347848	    -21.20640116	    -12.68633520	    138.90788427	     85.94366927	      0.00000000	      0.00000000
      1.96000000	     -2.57858391	     -3.96047857	      3.31131156	      0.03220966	      0.97116025	      2.63869810	    -12.13078550	      4.13473987	     13.82602239	    -45.88272542	      1.70937162	     -6.63988508	    -25.05611857	      0.00000000	      0.00000000	     23.50123486	     -6.35197524	      1.66288532	    -17.46139457	     -1.72522029	      3.54733700	     -7.69222483	      0.00000000	      0.00000000	    -12.31305527	      2.93269225	      7.32082001	    -19.45979967	    -30.51145648	     -5.49056366	    131.79075018	     86.51662706	      0.00000000	      0.00000000	    -36.18594518	    -21.80007135	    -12.67911389	    138.90254393	     85.94366927	      0.00000000	      0.00000000
      1.97000000	     -1.98737969	     -3.51147516	      3.42134951	      0.03204553	      0.96424573	      2.63889815	    -11.02285559	      3.87579808	     14.43056370	    -51.21631200	      2.79127299	     -7.04328361	    -22.51729062	      0.00000000	      0.00000000	     22.90171337	     -5.93659129	      2.29315219	    -20.06030917	     -1.98754693	      3.76490884	     -5.02763894	      0.00000000	      0.00000000	    -13.03888645	      2.16981609	      6.64726198	    -19.87488251	    -29.99180325	     -5.32176808	    130.85997037	     86.51662706	      0.00000000	      0.00000000	    -35.02225364	    -22.53405187	    -12.55615616	    138.71625693	     85.94366927	      0.00000000	      0.00000000
      1.98000000	     -1.43088220	     -2.93207564	      3.52550528	      0.03147837	      0.95644019	      2.63913062	     -9.78159956	      3.32166336	     14.34850486	    -56.60174975	      3.59540396	     -7.16201590	    -20.05928721	      0.00000000	      0.00000000	     22.20742214	     -5.22729624	      3.26830676	    -23.06078621	     -2.23827844	      4.21957047	     -1.56365838	      0.00000000	      0.00000000	    -13.76954614	      1.27035541	      5.89035553	    -20.27206828	    -29.47315440	     -5.17596636	    129.77652366	     86.51662706	      0.00000000	      0.00000000	    -33.65925460	    -23.37509578	    -12.26867430	    138.31887999	     85.94366927	      0.00000000	      0.00000000
